<?xml version="1.0" encoding="UTF-8"?>
<svg width="100px" height="97px" viewBox="0 0 100 97" version="1.1" xmlns="http://www.w3.org/2000/svg" xmlns:xlink="http://www.w3.org/1999/xlink">
    <!-- Generator: Sketch 48.2 (47327) - http://www.bohemiancoding.com/sketch -->
    <title>white</title>
    <desc>Created with Sketch.</desc>
    <defs></defs>
    <g id="Page-1" stroke="none" stroke-width="1" fill="none" fill-rule="evenodd">
        <g id="white" fill="#FFFFFF">
            <path d="M16.8967065,73.9175566 C9.36904004,64.4659902 8.78601224,53.3238845 14.4656534,43.4864575 C21.1619819,31.8880762 32.0059107,33.533223 50.8012542,27.2448981 C35.7712229,39.0854859 29.5946396,39.6092661 23.1292435,50.8076606 C18.7023148,58.4753261 16.5205813,66.7534581 16.8967065,73.9175566 Z M67.7456077,39.3609817 C71.3862316,56.7470163 78.3930771,65.754023 72.0533599,76.7347353 C66.1159391,87.0186499 55.9840143,91.967396 43.7920906,89.7992216 C50.3056487,86.5079002 56.5492229,80.2513311 61.1877915,72.2170946 C67.2465617,61.7229967 65.6856752,55.7226989 67.7456077,39.3609817 Z M59.8489782,97.0843642 C68.8111706,94.9127724 76.1314651,89.2640881 80.7753499,81.2206437 C90.0451344,65.164906 71.9622108,34.6507071 78.1921765,4.11329342 C91.3797795,8.37877868 100.023308,15.5549664 99.9999528,23.6885849 C99.9851659,28.838299 96.5050225,33.6042122 90.608823,37.4905768 L92.7032146,86.5628393 C92.9402089,92.1341972 88.306147,96.8408425 82.3530392,97.075426 C82.2018401,97.0813842 82.0505293,97.0843642 81.8992073,97.0843642 L59.8489782,97.0843642 Z M42.5281229,97.0843642 L18.1007927,97.0843642 C12.142932,97.0843642 7.3020032,92.5638846 7.2882755,86.9875903 C7.28792683,86.8459596 7.29076407,86.7043446 7.29678542,86.5628393 L7.89156296,72.627012 C11.6548358,79.3644812 17.8328022,85.6622852 26.6668723,90.7626379 C32.117036,93.9092914 37.4428849,95.9759762 42.5281229,97.0843642 Z M9.10255609,37.2983357 C3.3815717,33.4475233 0.014591168,28.7537014 4.7211197e-05,23.6885849 C-0.0375188187,10.6057407 22.3482226,0 50,0 C59.344462,0 68.0875477,1.21116554 75.567129,3.3197988 C53.8813344,22.9462955 19.9634835,23.1099938 9.10255609,37.2983357 Z M29.2871778,84.7079965 C21.7517088,80.3573915 23.8181609,67.0614749 32.1468793,52.6357115 C40.8497947,37.5618198 50.2348441,35.8300299 70.2290048,15.4882218 C61.853313,42.4933884 64.2783296,51.2206806 55.6327406,66.1952799 C47.0823074,81.0050647 36.8226468,89.0586016 29.2871778,84.7079965 Z" id="Combined-Shape"></path>
        </g>
    </g>
</svg>