<?xml version="1.0" encoding="UTF-8"?>
<svg width="554px" height="291px" viewBox="0 0 554 291" version="1.1" xmlns="http://www.w3.org/2000/svg" xmlns:xlink="http://www.w3.org/1999/xlink">
    <!-- Generator: Sketch 48.2 (47327) - http://www.bohemiancoding.com/sketch -->
    <title>spacing-guide</title>
    <desc>Created with Sketch.</desc>
    <defs>
        <rect id="path-1" x="0" y="0" width="86" height="97"></rect>
        <rect id="path-3" x="0" y="0" width="86" height="97"></rect>
        <rect id="path-5" x="0" y="0" width="86" height="97"></rect>
    </defs>
    <g id="Page-1" stroke="none" stroke-width="1" fill="none" fill-rule="evenodd">
        <g id="spacing-guide">
            <path d="M210.46875,177.28125 C206.322896,177.28125 203.135428,176.562507 200.90625,175.125 C198.677072,173.687493 197.302086,171.458348 196.78125,168.4375 L205.625,167.5 C206.187503,170.145847 208.145817,171.46875 211.5,171.46875 C213.791678,171.46875 215.57291,170.854173 216.84375,169.625 C218.11459,168.395827 219.104163,166.239599 219.8125,163.15625 C220.229169,161.15624 220.552082,159.343758 220.78125,157.71875 L220.71875,157.71875 C219.406243,159.572926 218.255213,160.906246 217.265625,161.71875 C216.276037,162.531254 215.161465,163.156248 213.921875,163.59375 C212.682285,164.031252 211.260425,164.25 209.65625,164.25 C206.427067,164.25 203.848968,163.208344 201.921875,161.125 C199.994782,159.041656 199.03125,156.291684 199.03125,152.875 C199.03125,148.687479 199.692702,144.671894 201.015625,140.828125 C202.338548,136.984356 204.161447,134.151051 206.484375,132.328125 C208.807303,130.505199 211.749982,129.59375 215.3125,129.59375 C217.770846,129.59375 219.885408,130.177077 221.65625,131.34375 C223.427092,132.510423 224.593747,134.09374 225.15625,136.09375 L225.21875,136.09375 C225.343751,135.48958 225.598956,134.395841 225.984375,132.8125 C226.369794,131.229159 226.614583,130.354168 226.71875,130.1875 L235,130.1875 L234.40625,132.78125 L233.46875,137.34375 L228.3125,163.6875 C227.333328,168.541691 225.437514,172.020823 222.625,174.125 C219.812486,176.229177 215.760443,177.28125 210.46875,177.28125 Z M223.4375,142.5625 C223.4375,140.395823 222.895839,138.692715 221.8125,137.453125 C220.729161,136.213535 219.208343,135.59375 217.25,135.59375 C215.666659,135.59375 214.35938,135.92708 213.328125,136.59375 C212.29687,137.26042 211.421879,138.338534 210.703125,139.828125 C209.984371,141.317716 209.390627,143.27603 208.921875,145.703125 C208.453123,148.13022 208.21875,150.104159 208.21875,151.625 C208.21875,155.770854 210.020815,157.84375 213.625,157.84375 C215.479176,157.84375 217.166659,157.14584 218.6875,155.75 C220.208341,154.35416 221.380204,152.453137 222.203125,150.046875 C223.026046,147.640613 223.4375,145.145846 223.4375,142.5625 Z M263.96875,164.3125 C261.885406,164.3125 260.281256,163.875004 259.15625,163 C258.031244,162.124996 257.46875,160.968757 257.46875,159.53125 C257.46875,158.760413 257.520833,158.093753 257.625,157.53125 L257.4375,157.53125 C255.687491,160.239597 253.958342,162.098953 252.25,163.109375 C250.541658,164.119797 248.458346,164.625 246,164.625 C243.083319,164.625 240.755217,163.755217 239.015625,162.015625 C237.276033,160.276033 236.40625,158.04168 236.40625,155.3125 C236.40625,151.458314 237.734362,148.546885 240.390625,146.578125 C243.046888,144.609365 247.354137,143.572917 253.3125,143.46875 L259.28125,143.375 C259.718752,141.395823 259.9375,140.031254 259.9375,139.28125 C259.9375,136.61457 258.614597,135.28125 255.96875,135.28125 C254.010407,135.28125 252.552088,135.661455 251.59375,136.421875 C250.635412,137.182295 249.979168,138.281243 249.625,139.71875 L241.40625,138.75 C242.114587,135.749985 243.713529,133.468758 246.203125,131.90625 C248.692721,130.343742 251.999979,129.5625 256.125,129.5625 C260.437522,129.5625 263.598948,130.322909 265.609375,131.84375 C267.619802,133.364591 268.625,135.677068 268.625,138.78125 C268.625,139.552087 268.375002,141.187488 267.875,143.6875 L265.65625,154.71875 C265.489582,155.656255 265.40625,156.406247 265.40625,156.96875 C265.40625,157.468752 265.510416,157.854165 265.71875,158.125 C265.927084,158.395835 266.166665,158.593749 266.4375,158.71875 C266.708335,158.843751 266.979165,158.921875 267.25,158.953125 C267.520835,158.984375 267.729166,159 267.875,159 C268.500003,159 269.14583,158.927084 269.8125,158.78125 L269.375,163.625 C268.499996,163.958335 267.614588,164.15625 266.71875,164.21875 C265.822912,164.28125 264.906255,164.3125 263.96875,164.3125 Z M258.3125,148.28125 L253.25,148.28125 C250.812488,148.322917 248.890632,148.822912 247.484375,149.78125 C246.078118,150.739588 245.375,152.093741 245.375,153.84375 C245.375,155.302091 245.786454,156.442704 246.609375,157.265625 C247.432296,158.088546 248.54166,158.5 249.9375,158.5 C251.666675,158.5 253.239576,157.828132 254.65625,156.484375 C256.072924,155.140618 257.062497,153.364594 257.625,151.15625 L258.3125,148.28125 Z M298.0625,137.34375 C296.624993,137.031248 295.437505,136.875 294.5,136.875 C291.937487,136.875 289.848966,137.781241 288.234375,139.59375 C286.619784,141.406259 285.44792,144.187481 284.71875,147.9375 L281.5625,164 L272.78125,164 L277.8125,138.0625 C278.312502,135.562488 278.749998,132.937514 279.125,130.1875 L287.5,130.1875 L286.8125,135.5625 L286.5625,137.09375 L286.6875,137.09375 C288.208341,134.302069 289.708326,132.348964 291.1875,131.234375 C292.666674,130.119786 294.364574,129.5625 296.28125,129.5625 C297.260422,129.5625 298.333327,129.708332 299.5,130 L298.0625,137.34375 Z M297.6875,164 L306.6875,117.625 L315.46875,117.625 L306.4375,164 L297.6875,164 Z M323.1875,124.09375 L324.46875,117.625 L333.25,117.625 L331.96875,124.09375 L323.1875,124.09375 Z M315.46875,164 L322.03125,130.1875 L330.8125,130.1875 L324.21875,164 L315.46875,164 Z M348.90625,158.59375 C350.635425,158.59375 352.062494,158.04688 353.1875,156.953125 C354.312506,155.85937 355.20833,154.239594 355.875,152.09375 L364.34375,153.65625 C362.114572,160.968787 356.802125,164.625 348.40625,164.625 C343.822894,164.625 340.296887,163.453137 337.828125,161.109375 C335.359363,158.765613 334.125,155.510437 334.125,151.34375 C334.125,147.28123 334.947908,143.468768 336.59375,139.90625 C338.239592,136.343732 340.432278,133.729175 343.171875,132.0625 C345.911472,130.395825 349.322896,129.5625 353.40625,129.5625 C357.34377,129.5625 360.489572,130.557282 362.84375,132.546875 C365.197928,134.536468 366.520832,137.302066 366.8125,140.84375 L357.9375,141.5625 C357.708332,137.583313 355.968766,135.59375 352.71875,135.59375 C350.489572,135.59375 348.744798,136.359367 347.484375,137.890625 C346.223952,139.421883 345.083338,142.135397 344.0625,146.03125 C343.583331,148.427095 343.34375,150.177078 343.34375,151.28125 C343.34375,156.156274 345.197898,158.59375 348.90625,158.59375 Z M404.78125,142.65625 C404.78125,146.968772 403.9323,150.802067 402.234375,154.15625 C400.53645,157.510433 398.130224,160.093741 395.015625,161.90625 C391.901026,163.718759 388.385436,164.625 384.46875,164.625 C379.927061,164.625 376.333347,163.401054 373.6875,160.953125 C371.041653,158.505196 369.71875,155.156271 369.71875,150.90625 C369.71875,146.718729 370.546867,143.010433 372.203125,139.78125 C373.859383,136.552067 376.218735,134.046884 379.28125,132.265625 C382.343765,130.484366 385.833314,129.59375 389.75,129.59375 C394.645858,129.59375 398.374987,130.734364 400.9375,133.015625 C403.500013,135.296886 404.78125,138.510396 404.78125,142.65625 Z M395.59375,143.3125 C395.59375,138.166641 393.427105,135.59375 389.09375,135.59375 C386.718738,135.59375 384.828132,136.218744 383.421875,137.46875 C382.015618,138.718756 380.916671,140.619779 380.125,143.171875 C379.333329,145.723971 378.9375,148.177072 378.9375,150.53125 C378.9375,155.92711 381.104145,158.625 385.4375,158.625 C387.770845,158.625 389.619785,158.036464 390.984375,156.859375 C392.348965,155.682286 393.421871,153.895845 394.203125,151.5 C394.984379,149.104155 395.447916,146.375015 395.59375,143.3125 Z M415.65625,124.09375 L416.9375,117.625 L425.71875,117.625 L424.4375,124.09375 L415.65625,124.09375 Z M407.9375,164 L414.5,130.1875 L423.28125,130.1875 L416.6875,164 L407.9375,164 Z M447.6875,164 L451.375,145.40625 C451.916669,142.822904 452.1875,141.104171 452.1875,140.25 C452.1875,137.562487 450.604182,136.21875 447.4375,136.21875 C445.333323,136.21875 443.385426,137.072908 441.59375,138.78125 C439.802074,140.489592 438.677086,142.583321 438.21875,145.0625 L434.53125,164 L425.71875,164 L430.90625,137.40625 C431.239585,135.760408 431.635414,133.354183 432.09375,130.1875 L440.46875,130.1875 C440.46875,130.375001 440.369793,131.249992 440.171875,132.8125 C439.973957,134.375008 439.822917,135.427081 439.71875,135.96875 L439.8125,135.96875 C441.375008,133.802073 443.098949,132.197922 444.984375,131.15625 C446.869801,130.114578 449.031238,129.59375 451.46875,129.59375 C454.635432,129.59375 457.020825,130.354159 458.625,131.875 C460.229175,133.395841 461.03125,135.593736 461.03125,138.46875 C461.03125,138.989586 460.958334,139.817703 460.8125,140.953125 C460.666666,142.088547 460.520834,142.968747 460.375,143.59375 L456.40625,164 L447.6875,164 Z" id="garlicoin" fill="#505566"></path>
            <path d="M95.9141211,170.849847 C88.3819318,161.40087 87.794006,150.264295 93.469401,140.434223 C100.160469,128.844953 111.003912,130.49435 129.7957,124.215349 C114.771839,136.044197 108.596516,136.564831 102.136432,147.754024 C97.7126635,155.416216 95.5345293,163.68951 95.9141211,170.849847 Z M146.737844,136.33918 C150.384673,153.710216 157.390381,162.71295 151.057108,173.682501 C145.12518,183.9569 134.998125,188.89863 122.808953,186.728205 C129.320041,183.441548 135.560109,177.191289 140.194768,169.163825 C146.247337,158.680468 144.685951,152.683727 146.737844,136.33918 Z M138.924103,194 C147.857523,191.823067 155.15288,186.187731 159.78287,178.168352 C169.045295,162.125362 150.951406,131.62087 157.172645,101.10341 C170.371245,105.36442 179.023319,112.537438 178.999953,120.668 C178.985166,125.813239 175.505023,130.575011 169.608823,134.457998 L171.703215,183.487618 C171.940209,189.054135 167.306147,193.75669 161.353039,193.99107 C161.20184,193.997023 161.050529,194 160.899207,194 L138.924103,194 Z M121.51634,194 L97.1007927,194 C91.142932,194 86.3020032,189.483449 86.2882755,183.912 C86.2879268,183.770492 86.2907641,183.629 86.2967854,183.487618 L86.8934294,169.520207 C90.6566881,176.267016 96.8413762,182.575163 105.689738,187.683767 C111.127904,190.823494 116.441924,192.888655 121.51634,194 Z M88.097687,134.262649 C82.3796613,130.415797 79.014587,125.727279 79.0000472,120.668 C78.9624812,107.596525 101.348223,97 129,97 C138.337692,97 147.074878,98.2083602 154.55087,100.312336 C132.869745,119.928733 98.9392486,120.071836 88.097687,134.262649 Z M108.304648,181.634387 C100.769179,177.283782 102.830179,163.997308 111.15166,149.584081 C119.847013,134.523288 129.229372,132.796158 149.211535,112.475131 C140.847824,139.459546 143.275598,148.182062 134.637521,163.143649 C126.094518,177.940565 115.840117,185.984992 108.304648,181.634387 Z" id="Logomark" fill="#FCD46B"></path>
            <g id="spacer-left" transform="translate(0.000000, 97.000000)">
                <mask id="mask-2" fill="white">
                    <use xlink:href="#path-1"></use>
                </mask>
                <g id="Rectangle"></g>
                <path d="M9.91412106,73.849847 C2.38193182,64.4008701 1.79400603,53.2642952 7.46940105,43.4342227 C14.1604689,31.8449532 25.0039119,33.4943502 43.7957001,27.2153494 C28.7718392,39.0441966 22.5965157,39.5648306 16.1364319,50.754024 C11.7126635,58.4162155 9.53452928,66.6895102 9.91412106,73.849847 Z M60.7378436,39.3391799 C64.3846727,56.710216 71.3903805,65.7129501 65.0571076,76.6825005 C59.1251802,86.9569001 48.9981251,91.8986305 36.8089527,89.7282048 C43.3200411,86.4415482 49.5601091,80.1912895 54.1947677,72.1638254 C60.2473367,61.6804684 58.685951,55.6837274 60.7378436,39.3391799 Z M52.9241025,97 C61.8575226,94.8230669 69.1528798,89.1877306 73.7828704,81.1683516 C83.0452949,65.1253618 64.9514063,34.6208704 71.1726449,4.10341034 C84.3712445,8.36441975 93.0233192,15.5374382 92.9999528,23.668 C92.9851659,28.8132391 89.5050225,33.5750108 83.608823,37.4579983 L85.7032146,86.4876181 C85.9402089,92.0541346 81.306147,96.75669 75.3530392,96.9910696 C75.2018401,96.9970225 75.0505293,97 74.8992073,97 L52.9241025,97 Z M35.5163396,97 L11.1007927,97 C5.14293203,97 0.302003203,92.4834486 0.288275499,86.912 C0.287926833,86.7704924 0.290764074,86.6290005 0.296785416,86.4876181 L0.893429405,72.5202074 C4.65668814,79.2670158 10.8413762,85.5751631 19.689738,90.6837672 C25.1279041,93.8234938 30.4419244,95.8886554 35.5163396,97 Z M2.09768696,37.2626491 C-3.62033868,33.4157969 -6.98541296,28.7272792 -6.99995279,23.668 C-7.03751882,10.5965245 15.3482226,0 43,0 C52.3376917,0 61.0748782,1.20836018 68.5508696,3.31233609 C46.8697453,22.9287332 12.9392486,23.0718357 2.09768696,37.2626491 Z M22.3046479,84.6343871 C14.7691789,80.2837821 16.8301791,66.9973084 25.15166,52.5840807 C33.8470128,37.5232879 43.2293717,35.796158 63.2115346,15.4751308 C54.8478239,42.4595456 57.2755975,51.1820624 48.6375214,66.1436491 C40.0945183,80.9405646 29.8401169,88.9849922 22.3046479,84.6343871 Z" id="Logomark-Copy" fill="#E5E5E5" mask="url(#mask-2)"></path>
            </g>
            <g id="spacer-bottom" transform="translate(84.000000, 194.000000)">
                <mask id="mask-4" fill="white">
                    <use xlink:href="#path-3"></use>
                </mask>
                <g id="Rectangle"></g>
                <path d="M9.91412106,73.849847 C2.38193182,64.4008701 1.79400603,53.2642952 7.46940105,43.4342227 C14.1604689,31.8449532 25.0039119,33.4943502 43.7957001,27.2153494 C28.7718392,39.0441966 22.5965157,39.5648306 16.1364319,50.754024 C11.7126635,58.4162155 9.53452928,66.6895102 9.91412106,73.849847 Z M60.7378436,39.3391799 C64.3846727,56.710216 71.3903805,65.7129501 65.0571076,76.6825005 C59.1251802,86.9569001 48.9981251,91.8986305 36.8089527,89.7282048 C43.3200411,86.4415482 49.5601091,80.1912895 54.1947677,72.1638254 C60.2473367,61.6804684 58.685951,55.6837274 60.7378436,39.3391799 Z M52.9241025,97 C61.8575226,94.8230669 69.1528798,89.1877306 73.7828704,81.1683516 C83.0452949,65.1253618 64.9514063,34.6208704 71.1726449,4.10341034 C84.3712445,8.36441975 93.0233192,15.5374382 92.9999528,23.668 C92.9851659,28.8132391 89.5050225,33.5750108 83.608823,37.4579983 L85.7032146,86.4876181 C85.9402089,92.0541346 81.306147,96.75669 75.3530392,96.9910696 C75.2018401,96.9970225 75.0505293,97 74.8992073,97 L52.9241025,97 Z M35.5163396,97 L11.1007927,97 C5.14293203,97 0.302003203,92.4834486 0.288275499,86.912 C0.287926833,86.7704924 0.290764074,86.6290005 0.296785416,86.4876181 L0.893429405,72.5202074 C4.65668814,79.2670158 10.8413762,85.5751631 19.689738,90.6837672 C25.1279041,93.8234938 30.4419244,95.8886554 35.5163396,97 Z M2.09768696,37.2626491 C-3.62033868,33.4157969 -6.98541296,28.7272792 -6.99995279,23.668 C-7.03751882,10.5965245 15.3482226,0 43,0 C52.3376917,0 61.0748782,1.20836018 68.5508696,3.31233609 C46.8697453,22.9287332 12.9392486,23.0718357 2.09768696,37.2626491 Z M22.3046479,84.6343871 C14.7691789,80.2837821 16.8301791,66.9973084 25.15166,52.5840807 C33.8470128,37.5232879 43.2293717,35.796158 63.2115346,15.4751308 C54.8478239,42.4595456 57.2755975,51.1820624 48.6375214,66.1436491 C40.0945183,80.9405646 29.8401169,88.9849922 22.3046479,84.6343871 Z" id="Logomark-Copy" fill="#E5E5E5" mask="url(#mask-4)"></path>
            </g>
            <g id="spacer-right" opacity="0.500283062" transform="translate(461.000000, 97.000000)" fill="#CACACA">
                <path d="M16.9141211,73.849847 C9.38193182,64.4008701 8.79400603,53.2642952 14.469401,43.4342227 C21.1604689,31.8449532 32.0039119,33.4943502 50.7957001,27.2153494 C35.7718392,39.0441966 29.5965157,39.5648306 23.1364319,50.754024 C18.7126635,58.4162155 16.5345293,66.6895102 16.9141211,73.849847 Z M67.7378436,39.3391799 C71.3846727,56.710216 78.3903805,65.7129501 72.0571076,76.6825005 C66.1251802,86.9569001 55.9981251,91.8986305 43.8089527,89.7282048 C50.3200411,86.4415482 56.5601091,80.1912895 61.1947677,72.1638254 C67.2473367,61.6804684 65.685951,55.6837274 67.7378436,39.3391799 Z M59.9241025,97 C68.8575226,94.8230669 76.1528798,89.1877306 80.7828704,81.1683516 C90.0452949,65.1253618 71.9514063,34.6208704 78.1726449,4.10341034 C91.3712445,8.36441975 100.023319,15.5374382 99.9999528,23.668 C99.9851659,28.8132391 96.5050225,33.5750108 90.608823,37.4579983 L92.7032146,86.4876181 C92.9402089,92.0541346 88.306147,96.75669 82.3530392,96.9910696 C82.2018401,96.9970225 82.0505293,97 81.8992073,97 L59.9241025,97 Z M42.5163396,97 L18.1007927,97 C12.142932,97 7.3020032,92.4834486 7.2882755,86.912 C7.28792683,86.7704924 7.29076407,86.6290005 7.29678542,86.4876181 L7.8934294,72.5202074 C11.6566881,79.2670158 17.8413762,85.5751631 26.689738,90.6837672 C32.1279041,93.8234938 37.4419244,95.8886554 42.5163396,97 Z M9.09768696,37.2626491 C3.37966132,33.4157969 0.0145870414,28.7272792 4.7211197e-05,23.668 C-0.0375188187,10.5965245 22.3482226,0 50,0 C59.3376917,0 68.0748782,1.20836018 75.5508696,3.31233609 C53.8697453,22.9287332 19.9392486,23.0718357 9.09768696,37.2626491 Z M29.3046479,84.6343871 C21.7691789,80.2837821 23.8301791,66.9973084 32.15166,52.5840807 C40.8470128,37.5232879 50.2293717,35.796158 70.2115346,15.4751308 C61.8478239,42.4595456 64.2755975,51.1820624 55.6375214,66.1436491 C47.0945183,80.9405646 36.8401169,88.9849922 29.3046479,84.6343871 Z" id="Logomark-Copy"></path>
            </g>
            <g id="spacer-top" transform="translate(84.000000, 0.000000)">
                <mask id="mask-6" fill="white">
                    <use xlink:href="#path-5"></use>
                </mask>
                <g id="Rectangle"></g>
                <path d="M9.91412106,73.849847 C2.38193182,64.4008701 1.79400603,53.2642952 7.46940105,43.4342227 C14.1604689,31.8449532 25.0039119,33.4943502 43.7957001,27.2153494 C28.7718392,39.0441966 22.5965157,39.5648306 16.1364319,50.754024 C11.7126635,58.4162155 9.53452928,66.6895102 9.91412106,73.849847 Z M60.7378436,39.3391799 C64.3846727,56.710216 71.3903805,65.7129501 65.0571076,76.6825005 C59.1251802,86.9569001 48.9981251,91.8986305 36.8089527,89.7282048 C43.3200411,86.4415482 49.5601091,80.1912895 54.1947677,72.1638254 C60.2473367,61.6804684 58.685951,55.6837274 60.7378436,39.3391799 Z M52.9241025,97 C61.8575226,94.8230669 69.1528798,89.1877306 73.7828704,81.1683516 C83.0452949,65.1253618 64.9514063,34.6208704 71.1726449,4.10341034 C84.3712445,8.36441975 93.0233192,15.5374382 92.9999528,23.668 C92.9851659,28.8132391 89.5050225,33.5750108 83.608823,37.4579983 L85.7032146,86.4876181 C85.9402089,92.0541346 81.306147,96.75669 75.3530392,96.9910696 C75.2018401,96.9970225 75.0505293,97 74.8992073,97 L52.9241025,97 Z M35.5163396,97 L11.1007927,97 C5.14293203,97 0.302003203,92.4834486 0.288275499,86.912 C0.287926833,86.7704924 0.290764074,86.6290005 0.296785416,86.4876181 L0.893429405,72.5202074 C4.65668814,79.2670158 10.8413762,85.5751631 19.689738,90.6837672 C25.1279041,93.8234938 30.4419244,95.8886554 35.5163396,97 Z M2.09768696,37.2626491 C-3.62033868,33.4157969 -6.98541296,28.7272792 -6.99995279,23.668 C-7.03751882,10.5965245 15.3482226,0 43,0 C52.3376917,0 61.0748782,1.20836018 68.5508696,3.31233609 C46.8697453,22.9287332 12.9392486,23.0718357 2.09768696,37.2626491 Z M22.3046479,84.6343871 C14.7691789,80.2837821 16.8301791,66.9973084 25.15166,52.5840807 C33.8470128,37.5232879 43.2293717,35.796158 63.2115346,15.4751308 C54.8478239,42.4595456 57.2755975,51.1820624 48.6375214,66.1436491 C40.0945183,80.9405646 29.8401169,88.9849922 22.3046479,84.6343871 Z" id="Logomark-Copy" fill="#E5E5E5" mask="url(#mask-6)"></path>
            </g>
        </g>
    </g>
</svg>